<svg xmlns="http://www.w3.org/2000/svg" viewBox="0 0 200 160" fill="none">
    <defs>
        <linearGradient id="g-scan" x1="0%" y1="0%" x2="100%" y2="0%">
            <stop offset="0%" stop-color="#16a34a"/>
            <stop offset="100%" stop-color="#4ade80"/>
        </linearGradient>
    </defs>
    <ellipse cx="100" cy="140" rx="60" ry="6" fill="#16a34a" opacity="0.1"/>
    <rect x="50" y="40" width="100" height="70" rx="8" fill="#f8fafc" stroke="#e4e8ef" stroke-width="2"/>
    <line x1="60" y1="55" x2="140" y2="55" stroke="#e4e8ef" stroke-width="2"/>
    <line x1="60" y1="65" x2="120" y2="65" stroke="#e4e8ef" stroke-width="2"/>
    <line x1="60" y1="75" x2="130" y2="75" stroke="#e4e8ef" stroke-width="2"/>
    <line x1="60" y1="85" x2="110" y2="85" stroke="#e4e8ef" stroke-width="2"/>
    <line x1="60" y1="95" x2="125" y2="95" stroke="#e4e8ef" stroke-width="2"/>
    <circle cx="100" cy="75" r="50" fill="url(#g-scan)" opacity="0.15"/>
    <path d="M100 30 L100 120 M40 75 L160 75 M55 40 L145 110 M145 40 L55 110" stroke="url(#g-scan)" stroke-width="3" stroke-linecap="round"/>
    <circle cx="100" cy="75" r="20" fill="#fff" stroke="#16a34a" stroke-width="4"/>
    <path d="M90 75 L97 82 L112 67" stroke="#16a34a" stroke-width="4" stroke-linecap="round" stroke-linejoin="round" fill="none"/>
</svg>
